<svg width="8" height="11" viewBox="0 0 8 11" fill="none" xmlns="http://www.w3.org/2000/svg">
<path d="M6.75186 4.22106L3.94458 4.21706L3.94998 0.423832C3.95009 0.350801 3.92379 0.279887 3.87539 0.22265C3.82698 0.165413 3.75931 0.12523 3.68342 0.108652C3.60754 0.0920734 3.5279 0.100078 3.45749 0.131361C3.38709 0.162643 3.33007 0.215359 3.29574 0.280912L0.135109 6.31413C0.109507 6.36333 0.0976615 6.41782 0.100684 6.47249C0.103706 6.52715 0.121498 6.58021 0.152388 6.62667C0.183279 6.67313 0.226256 6.71148 0.277287 6.73812C0.328318 6.76475 0.38573 6.7788 0.444135 6.77894L3.25142 6.78294L3.24602 10.5771C3.24608 10.6498 3.27232 10.7204 3.3205 10.7775C3.36869 10.8345 3.43599 10.8746 3.51152 10.8914C3.53737 10.8969 3.5638 10.8997 3.59031 10.8998C3.65481 10.8998 3.71803 10.8829 3.77279 10.851C3.82755 10.8191 3.87164 10.7734 3.90006 10.7191L7.06069 4.68587C7.08623 4.63668 7.09803 4.58222 7.09499 4.52759C7.09196 4.47296 7.07417 4.41994 7.04332 4.3735C7.01246 4.32705 6.96954 4.28871 6.91856 4.26205C6.86759 4.23539 6.81023 4.22128 6.75186 4.22106ZM3.93751 9.18183L3.94139 6.46062C3.94146 6.37495 3.90523 6.29276 3.84067 6.23211C3.7761 6.17147 3.68849 6.13732 3.59709 6.13719L0.996661 6.13349L3.25829 1.81835L3.25441 4.53939C3.25438 4.58182 3.26326 4.62384 3.28056 4.66306C3.29785 4.70228 3.32322 4.73792 3.35521 4.76796C3.38719 4.79799 3.42518 4.82182 3.46699 4.8381C3.50881 4.85437 3.55363 4.86277 3.59891 4.86281L6.19934 4.86651L3.93751 9.18183Z" fill="#2196F3" stroke="#2196F3" stroke-width="0.2"/>
</svg>
