<svg width="156" height="34" viewBox="0 0 156 34" fill="none" xmlns="http://www.w3.org/2000/svg">
<path d="M34.3205 0C35.9381 2.8333 37.5558 5.66661 39.1735 8.47812C35.9381 8.49991 32.6809 8.49991 29.4456 8.52171C28.9646 8.52171 28.5056 8.49991 28.0246 8.49991C25.2484 8.47812 22.4502 8.47812 19.6739 8.47812C20.7451 6.64737 21.8163 4.83841 22.8656 3.00766C23.4339 2.0269 23.9586 1.00255 24.4832 0C27.7623 0 31.0414 0 34.3205 0Z" fill="#019DD7"/>
<path d="M24.4831 0C23.9366 1.00255 23.4338 2.00511 22.8655 3.00766C21.8161 4.83841 20.745 6.64737 19.6738 8.47812C19.6301 8.52171 19.5645 8.5435 19.4989 8.5435C16.2854 8.52171 13.072 8.49991 9.85846 8.49991C10.4924 7.323 11.1264 6.14609 11.7822 4.99097C12.7222 3.31279 13.684 1.65639 14.6459 0C17.925 0 21.2041 0 24.4831 0Z" fill="#02BAF0"/>
<path d="M0 25.0632C0.218605 24.7799 0.45907 24.5183 0.633954 24.235C1.96744 21.9466 3.30093 19.6581 4.63442 17.3479C4.65628 17.2825 4.74373 17.2607 4.78745 17.2171C4.96233 17.3261 5.18094 17.3915 5.26838 17.5441C5.74931 18.3069 6.20838 19.0697 6.66745 19.8325C7.58559 21.4235 8.48187 23.0145 9.40001 24.5837C9.53117 24.7799 9.81536 24.8888 10.034 25.0414C9.85908 25.4119 9.6842 25.8042 9.48745 26.1747C8.26326 28.3324 7.03908 30.4901 5.81489 32.6259C5.61815 32.9965 5.37768 33.3234 5.07163 33.7811C4.21907 32.3426 3.41024 30.9696 2.62326 29.6183C1.88 28.3542 1.13675 27.0683 0.393489 25.8042C0.306047 25.6517 0.131163 25.5645 0 25.4555C0 25.3465 0 25.2158 0 25.0632Z" fill="#CDEAF2"/>
<path d="M155.012 10.7001C154.859 10.8962 154.706 11.0924 154.51 11.3539C154.335 11.1578 154.182 10.9834 153.985 10.7654C153.919 11.1142 153.854 11.4193 153.744 11.8988C153.176 11.2449 153.591 10.5911 153.307 9.98084C153.132 10.0026 152.892 10.0026 152.63 10.0462C152.608 10.6347 152.564 11.1795 152.542 11.7462C151.952 11.3103 152.214 10.7437 152.083 10.1988C151.93 10.0898 151.711 9.95905 151.493 9.82828C151.515 9.78469 151.537 9.71931 151.537 9.67572C152.302 9.67572 153.045 9.67572 153.897 9.67572C154.05 9.89366 154.247 10.177 154.444 10.4603C154.925 10.3514 154.772 9.50136 155.45 9.65392C155.515 10.2206 155.581 10.809 155.646 11.3757C155.646 11.5283 155.646 11.659 155.646 11.8116C155.493 11.768 155.318 11.7462 155.1 11.7026C155.122 11.3975 155.122 11.0924 155.143 10.809C155.143 10.7437 155.143 10.6783 155.122 10.6129C155.1 10.5911 155.056 10.6565 155.012 10.7001Z" fill="#273887"/>
<path d="M24.4838 34C24.4838 33.9346 24.4838 33.8692 24.4838 33.8039C24.5494 33.7821 24.6368 33.7603 24.7024 33.7385C27.9159 33.7603 31.1075 33.7603 34.321 33.7821C34.321 33.8474 34.321 33.9128 34.321 34C31.042 34 27.7629 34 24.4838 34Z" fill="#CDEAF2"/>
<path d="M155.647 11.3333C155.582 10.7667 155.516 10.1782 155.451 9.61154C155.516 9.52436 155.582 9.45897 155.647 9.3718C155.647 10.0256 155.647 10.6795 155.647 11.3333Z" fill="#0D6EAF"/>
<path d="M53.2954 23.3864C53.2954 26.2197 53.2954 28.8133 53.2954 31.494C52.093 31.494 50.9344 31.494 49.7102 31.494C49.6884 31.2979 49.6228 31.0581 49.6228 30.8184C49.6228 26.2415 49.5572 21.6646 49.6446 17.1095C49.7102 13.5134 51.5465 10.0699 55.6781 9.04553C59.307 8.15195 62.5861 8.78399 65.0563 11.7917C68.4884 15.9762 67.1986 23.8441 60.6405 25.3697C58.2358 25.9364 55.9405 25.5877 53.973 23.9531C53.82 23.8223 53.6451 23.6915 53.2954 23.3864ZM63.0451 17.1749C63.0233 16.848 63.0014 16.5211 62.9577 16.1942C62.6735 13.9493 61.034 12.3583 58.5637 12.075C56.793 11.8788 54.5633 12.7724 53.667 14.9519C53.2516 15.9544 53.2079 17.0006 53.3172 18.0467C53.7107 21.3595 57.2302 23.2774 60.247 21.839C62.2144 20.9018 62.9795 19.2236 63.0451 17.1749Z" fill="#223484"/>
<path d="M111.925 25.1503C110.963 25.2593 110.11 25.4118 109.236 25.4336C107.028 25.4772 104.798 25.5644 102.59 25.4554C101.519 25.4118 100.448 25.0849 99.4425 24.6708C97.2783 23.799 96.6006 22.208 96.7318 19.9632C96.9285 16.7376 98.8741 15.6042 102 15.2773C103.793 15.0812 105.629 15.2337 107.443 15.2337C107.684 15.2337 107.946 15.2337 108.187 15.2337C108.274 13.512 107.509 12.3568 105.913 11.9863C103.902 11.5286 101.869 11.5069 99.9234 12.3786C99.6611 12.4876 99.3987 12.6184 99.1364 12.7274C97.7373 11.6594 97.8466 10.0902 99.4206 9.37098C100.142 9.04406 100.951 8.84791 101.716 8.78252C103.574 8.60816 105.41 8.65175 107.247 9.15303C110.263 9.95943 111.925 12.0517 111.947 15.1248C111.969 18.2414 111.947 21.358 111.947 24.4965C111.969 24.6708 111.947 24.8452 111.925 25.1503ZM108.318 18.0452C107.618 17.9581 106.984 17.8273 106.329 17.7837C104.886 17.6965 103.421 17.6094 102.022 18.0888C100.951 18.4593 100.404 19.3093 100.426 20.4209C100.448 21.4888 100.973 22.2734 102.066 22.5785C104.121 23.1234 106.197 22.9926 108.296 22.6221C108.318 21.0965 108.318 19.6581 108.318 18.0452Z" fill="#223484"/>
<path d="M86.8294 17.1735C86.9824 21.5324 83.441 25.5862 78.0852 25.6298C73.0792 25.6734 69.2317 21.9247 69.2754 17.1081C69.2973 12.2697 73.0573 8.71713 78.0852 8.71713C83.2443 8.69533 87.0043 12.6838 86.8294 17.1735ZM78.0415 11.9645C75.1996 11.9645 73.101 14.1876 73.101 17.1952C73.101 20.0939 75.2433 22.3606 77.9978 22.3606C80.9052 22.3606 83.0038 20.2247 82.982 17.1735C82.982 13.5555 80.468 11.9427 78.0415 11.9645Z" fill="#223484"/>
<path d="M149.11 13.0986C147.055 11.7909 144.76 11.3986 142.355 11.573C141.808 11.6166 141.262 11.7256 140.759 11.9217C139.95 12.205 139.579 12.7499 139.601 13.4691C139.622 14.2319 140.081 14.7114 140.759 14.864C141.918 15.1255 143.098 15.2999 144.279 15.496C145.394 15.6922 146.487 15.8883 147.601 16.1063C147.886 16.1717 148.148 16.2806 148.432 16.3896C151.427 17.7191 152.083 21.4678 149.744 23.7562C148.826 24.6498 147.711 25.1293 146.465 25.3472C142.88 26.001 139.448 25.4998 136.168 23.9524C136.015 23.887 135.862 23.7562 135.644 23.6036C136.081 22.7972 136.518 22.0126 136.912 21.2934C138.42 21.7075 139.841 22.2088 141.328 22.5139C142.792 22.819 144.301 22.8408 145.765 22.4267C146.246 22.2742 146.793 21.969 147.077 21.5767C147.689 20.6832 147.142 19.5498 145.94 19.2447C144.934 18.9832 143.863 18.8742 142.814 18.7434C141.415 18.5473 139.994 18.4601 138.661 17.8716C137.174 17.2178 136.147 16.1499 135.95 14.4717C135.753 12.5973 136.3 11.0499 137.939 9.96019C138.988 9.26276 140.191 8.93584 141.415 8.80507C143.448 8.60892 145.481 8.65251 147.492 9.17558C148.017 9.30635 148.541 9.5025 149.001 9.76404C150.618 10.6576 150.662 11.9435 149.11 13.0986Z" fill="#223484"/>
<path d="M93.6508 25.1522C92.4048 25.1522 91.2899 25.1522 90.0876 25.1522C90.0657 24.8252 90.022 24.4983 90.022 24.1932C90.022 17.3933 90.022 10.6151 90.022 3.81519C90.022 2.137 90.5904 1.59214 92.2736 1.7229C92.7327 1.7447 93.1918 1.89726 93.6508 1.98444C93.6508 9.74334 93.6508 17.3933 93.6508 25.1522Z" fill="#273887"/>
<path d="M43.9615 17.0002C43.6991 17.5015 43.4587 18.0245 43.1745 18.5258C41.7536 20.945 40.3326 23.3424 38.9117 25.7616C38.5838 25.6745 38.2559 25.5437 37.928 25.5219C35.108 25.5001 32.3098 25.5001 29.4898 25.5001C29.4898 25.4129 29.4898 25.3257 29.468 25.2386C29.5991 24.977 29.7084 24.7155 29.8396 24.4757C31.2824 21.9912 32.7033 19.5066 34.1461 17.0002C37.447 17.0002 40.7042 17.0002 43.9615 17.0002Z" fill="#0D6EAF"/>
<path d="M43.9618 17C40.7046 17 37.4473 17 34.1683 17C33.9715 16.5859 33.7748 16.15 33.5562 15.7577C32.2008 13.3385 30.8236 10.9411 29.4464 8.54368C32.6817 8.52189 35.939 8.52189 39.1743 8.50009C40.7483 11.2026 42.3441 13.9052 43.918 16.6077C43.9836 16.6949 43.9399 16.8692 43.9618 17Z" fill="#028DC0"/>
<path d="M119.358 25.1503C118.112 25.1503 116.953 25.1503 115.729 25.1503C115.707 24.8888 115.663 24.6055 115.642 24.3439C115.642 21.3363 115.642 18.3068 115.642 15.2992C115.642 14.7543 115.642 14.2094 115.751 13.6646C116.254 10.8313 118.002 9.19666 121.085 8.78256C122.528 8.58641 123.992 8.63 125.391 9.13127C127.206 9.76332 127.555 11.18 126.244 12.6184C125.501 12.4441 124.779 12.1607 124.036 12.0953C123.227 12.03 122.353 12.03 121.566 12.2261C120.057 12.6402 119.533 13.8607 119.38 15.2992C119.314 15.9094 119.358 16.5415 119.358 17.1517C119.358 19.4401 119.358 21.7286 119.358 24.017C119.358 24.3875 119.358 24.7362 119.358 25.1503Z" fill="#223484"/>
<path d="M29.5117 25.5003C32.3317 25.5003 35.1517 25.5003 37.9499 25.5221C38.2778 25.5221 38.6057 25.6746 38.9336 25.7618C37.5783 28.1374 36.2229 30.513 34.8894 32.8887C34.7145 33.1938 34.5178 33.4989 34.3429 33.8258C31.1294 33.804 27.9378 33.804 24.7243 33.7822C24.7899 33.5861 24.8336 33.3681 24.9429 33.172C25.7517 31.7771 26.5387 30.3605 27.3694 28.9656C28.0471 27.7887 28.7903 26.6554 29.5117 25.5003Z" fill="#0167B2"/>
<path d="M132.693 9.48058C132.693 14.7331 132.693 19.8984 132.693 25.1509C131.513 25.1509 130.354 25.1509 129.108 25.1509C129.086 24.7586 129.064 24.4099 129.064 24.0612C129.064 19.8766 129.13 15.7138 129.042 11.5293C128.999 9.15366 130.376 8.9793 131.972 9.26263C132.168 9.28443 132.387 9.3716 132.693 9.48058Z" fill="#273887"/>
<path d="M133.131 4.20527C133.131 5.51295 132.169 6.49371 130.901 6.47191C129.655 6.45012 128.737 5.51295 128.715 4.24886C128.715 2.94118 129.677 1.96042 130.945 1.98221C132.191 2.00401 133.131 2.96297 133.131 4.20527Z" fill="#273887"/>
<path d="M155.013 10.7007C155.056 10.6571 155.078 10.6135 155.122 10.5699C155.122 10.6353 155.122 10.7007 155.144 10.7661C155.1 10.7443 155.056 10.7225 155.013 10.7007Z" fill="#0D6EAF"/>
<path d="M29.5116 25.4997C28.7902 26.6549 28.0469 27.7882 27.3474 28.9651C26.5167 30.3599 25.7297 31.7548 24.9209 33.1715C24.8116 33.3458 24.7679 33.5638 24.7023 33.7817C24.6367 33.8035 24.5493 33.8253 24.4837 33.8471C22.8223 31.0138 21.1828 28.1587 19.5214 25.3254C19.6307 25.3254 19.7618 25.3036 19.8711 25.3036C23.019 25.3036 26.1888 25.3036 29.3367 25.3036C29.3804 25.2818 29.4242 25.2818 29.4897 25.26C29.4897 25.3254 29.4897 25.4126 29.5116 25.4997Z" fill="#134A9E"/>
<path d="M10.0565 25.0649C9.83792 24.9123 9.53187 24.8252 9.42257 24.6072C8.48257 23.038 7.60815 21.447 6.69001 19.856C6.2528 19.0714 5.77187 18.3086 5.29094 17.5675C5.2035 17.415 4.96303 17.3496 4.81001 17.2406C4.89745 17.0881 4.96303 16.9573 5.05047 16.8047C8.26397 16.8047 11.4556 16.8047 14.6691 16.8047C14.7565 16.8265 14.844 16.8265 14.9314 16.8483H14.9096C14.8877 16.9791 14.8658 17.1099 14.844 17.2406C14.5379 17.6111 14.1663 17.9381 13.9258 18.3522C12.5923 20.5534 11.3244 22.8201 10.0565 25.0649Z" fill="#9AD9F0"/>
<path d="M14.8209 17.2185C14.8428 17.0878 14.8646 16.957 14.8865 16.8262C15.28 16.848 15.6735 16.8916 16.067 16.8916C18.7995 16.9134 21.554 16.9134 24.2865 16.9352C24.1772 17.2403 24.1116 17.5673 23.9586 17.8288C23.0405 19.4198 22.1005 20.9672 21.2042 22.58C20.7233 23.4518 19.98 24.1928 19.8926 25.2608C19.7833 25.2608 19.6521 25.2826 19.5428 25.2826C17.947 22.6018 16.373 19.8993 14.8209 17.2185Z" fill="#1B1F64"/>
<path d="M14.6456 16.7817C11.4321 16.7817 8.24045 16.7817 5.02696 16.7817C5.87952 15.2342 6.73208 13.7086 7.60649 12.1612C8.06557 11.3548 8.52464 10.5266 9.00557 9.72019C9.22417 9.34968 9.50836 9.02276 9.77068 8.67404C9.96743 8.87019 10.186 9.04455 10.3391 9.28429C10.7981 10.0253 11.2353 10.7663 11.6725 11.5073C12.6563 13.2727 13.64 15.0381 14.6456 16.7817Z" fill="#80D0EE"/>
<path d="M14.6458 16.7821C13.662 15.0385 12.6565 13.2731 11.6509 11.5295C11.2137 10.7885 10.7765 10.0257 10.3174 9.30649C10.1644 9.08855 9.94576 8.91419 9.74901 8.69624C9.77087 8.63086 9.81459 8.56548 9.83646 8.50009C13.0499 8.52189 16.2634 8.52189 19.4988 8.54368C18.7555 9.89495 17.9904 11.2462 17.2472 12.5757C16.4602 13.9923 15.6951 15.409 14.9081 16.8039C14.8206 16.8039 14.7332 16.8039 14.6458 16.7821Z" fill="#53C5ED"/>
<path d="M24.287 16.9572C24.4619 17.1097 24.7023 17.2187 24.8116 17.3931C26.3419 20.0084 27.8502 22.6456 29.3586 25.2609C26.2107 25.2609 23.0409 25.2609 19.893 25.2609C19.9805 24.193 20.7237 23.452 21.2046 22.5802C22.1009 20.9892 23.0409 19.42 23.9591 17.829C24.0902 17.5674 24.1777 17.2405 24.287 16.9572Z" fill="#223484"/>
</svg>
