<svg width="13" height="9" viewBox="0 0 13 9" fill="none" xmlns="http://www.w3.org/2000/svg">
<g clip-path="url(#clip0_1_2333)">
<path d="M8.6838 8.67296L8.68315 7.5606L7.31845 7.55986L7.31802 6.81829L8.68271 6.81903L8.68206 5.70667L9.59186 5.70716L9.59251 6.81952L10.9572 6.82026L10.9576 7.56183L9.59294 7.56109L9.5936 8.67345L8.6838 8.67296ZM3.22459 7.92843C2.9744 7.9283 2.7601 7.85551 2.58169 7.71006C2.40329 7.56462 2.31418 7.39005 2.31436 7.18637L2.31175 2.73692C2.31163 2.53299 2.40069 2.3584 2.57892 2.21314C2.75716 2.06789 2.97122 1.99546 3.22111 1.99584L3.67601 1.99609L3.67557 1.25451L4.58537 1.25501L4.5858 1.99658L7.31519 1.99806L7.31475 1.25648L8.22455 1.25698L8.22499 1.99855L8.67988 1.9988C8.93008 1.99893 9.14438 2.07172 9.32278 2.21717C9.50119 2.36261 9.5903 2.53718 9.59012 2.74086L9.59144 5.00266C9.4398 4.98404 9.28816 4.97469 9.13653 4.97461C8.9849 4.97453 8.83327 4.98371 8.68165 5.00217L8.68119 4.22352L3.22242 4.22056L3.22416 7.18686L6.40844 7.18858C6.40851 7.31218 6.41996 7.43578 6.44278 7.55939C6.46559 7.683 6.50737 7.80661 6.56809 7.93024L3.22459 7.92843ZM3.22198 3.47899L8.68075 3.48194L8.68032 2.74037L3.22154 2.73741L3.22198 3.47899Z" fill="#223484"/>
</g>
<defs>
<clipPath id="clip0_1_2333">
<rect width="12.3889" height="8.48394" rx="2" transform="matrix(1.04891 0.000567874 0.000615697 1.04891 0 0)" fill="white"/>
</clipPath>
</defs>
</svg>
