<svg width="10" height="10" viewBox="0 0 10 10" fill="none" xmlns="http://www.w3.org/2000/svg">
<path d="M7.19661 4.45813C7.11328 4.54146 7.01259 4.58146 6.89453 4.57813C6.77648 4.57479 6.67578 4.53132 6.59245 4.44771L5.41536 3.27063L5.41536 7.91646C5.41536 8.03452 5.37536 8.13354 5.29536 8.21354C5.21536 8.29354 5.11648 8.33341 4.9987 8.33313C4.88064 8.33313 4.78161 8.29313 4.70161 8.21313C4.62161 8.13313 4.58175 8.03424 4.58203 7.91646L4.58203 3.27063L3.39453 4.45813C3.3112 4.54146 3.21217 4.58313 3.09745 4.58313C2.98273 4.58313 2.88384 4.54146 2.80078 4.45813C2.71745 4.37479 2.67578 4.27577 2.67578 4.16105C2.67578 4.04632 2.71745 3.94743 2.80078 3.86438L4.70703 1.95813C4.7487 1.91646 4.79384 1.88688 4.84245 1.86938C4.89106 1.85188 4.94314 1.84327 4.9987 1.84354C5.05425 1.84354 5.10634 1.8523 5.15495 1.8698C5.20356 1.8873 5.2487 1.91674 5.29036 1.95813L7.20703 3.87479C7.28342 3.95118 7.32161 4.0466 7.32161 4.16104C7.32161 4.27549 7.27995 4.37452 7.19661 4.45813Z" fill="#00B7A2"/>
</svg>
