<svg width="12" height="12" viewBox="0 0 12 12" fill="none" xmlns="http://www.w3.org/2000/svg">
<path d="M6.46807 5.38688L5.53217 5.38555L5.53083 6.32145L6.46673 6.32278L6.46807 5.38688Z" fill="white"/>
<path d="M10.5971 0.948151L10.0352 0.947351L10.0365 0.0114489L9.09991 0.0101165L9.09858 0.946019L2.91713 0.937225L2.91847 0.00132283L1.98188 -9.54921e-06L1.98055 0.935893L1.4186 0.935093C0.643955 0.933991 0.0128311 1.56286 0.0117282 2.33695L-5.17292e-06 10.5729C-0.00110798 11.347 0.628221 11.9776 1.40287 11.9787L4.51701 11.9832L4.58725 11.9833L6.2207 11.9856C5.8973 11.7181 5.61574 11.4019 5.387 11.0485L4.58858 11.0474L4.51834 11.0473L1.4042 11.0428C1.14599 11.0425 0.93621 10.8323 0.936577 10.5742L0.945377 4.39727L11.0605 4.41166L11.0591 5.34756L11.0591 5.39435L11.0591 5.39667C11.412 5.62626 11.7277 5.90853 11.9945 6.23243L11.9957 5.39569L11.9957 5.34889L12 2.354C12.0011 1.57992 11.3718 0.949253 10.5971 0.948151ZM11.0618 3.47575L0.946711 3.46136L0.948311 2.33828C0.948678 2.08025 1.15905 1.87063 1.41727 1.871L1.97922 1.8718L1.97788 2.8077L2.91447 2.80903L2.9158 1.87313L9.09724 1.88192L9.09591 2.81782L10.0325 2.81916L10.0338 1.88325L10.5958 1.88405C10.854 1.88442 11.0638 2.09464 11.0634 2.35267L11.0618 3.47575Z" fill="white"/>
<path d="M8.83285 5.67119C7.08989 5.66871 5.66986 7.08368 5.66738 8.82537C5.6649 10.5671 7.08089 11.9861 8.82385 11.9885C10.5668 11.991 11.9868 10.5761 11.9893 8.83436C11.9918 7.09267 10.5758 5.67367 8.83285 5.67119ZM8.82518 11.0526C7.59866 11.0509 6.60222 10.0523 6.60396 8.8267C6.60571 7.60106 7.60499 6.60535 8.83151 6.6071C10.058 6.60884 11.0545 7.60739 11.0527 8.83303C11.051 10.0587 10.0517 11.0544 8.82518 11.0526Z" fill="white"/>
<path d="M9.27622 7.26192L8.33963 7.26058L8.33673 9.29617L10.0694 9.29864L10.0707 8.36273L9.27465 8.3616L9.27622 7.26192Z" fill="white"/>
<path d="M4.59534 7.25557L3.65944 7.25424L3.65811 8.19014L4.59401 8.19148L4.59534 7.25557Z" fill="white"/>
<path d="M2.71819 7.25346L1.78229 7.25213L1.78096 8.18803L2.71686 8.18936L2.71819 7.25346Z" fill="white"/>
<path d="M2.72242 5.38054L1.78652 5.3792L1.78518 6.31511L2.72109 6.31644L2.72242 5.38054Z" fill="white"/>
<path d="M2.71819 9.12638L1.78229 9.12505L1.78096 10.061L2.71686 10.0623L2.71819 9.12638Z" fill="white"/>
<path d="M4.59957 5.38476L3.66367 5.38343L3.66233 6.31933L4.59824 6.32067L4.59957 5.38476Z" fill="white"/>
<path d="M4.59111 9.1285L3.65521 9.12716L3.65388 10.0631L4.58978 10.0644L4.59111 9.1285Z" fill="white"/>
</svg>
