<svg width="12" height="11" viewBox="0 0 12 11" fill="none" xmlns="http://www.w3.org/2000/svg">
<g clip-path="url(#clip0_1_2283)">
<path fill-rule="evenodd" clip-rule="evenodd" d="M7.28498 2.74933C7.28507 3.03378 7.1917 3.31126 7.01774 3.54355C6.84377 3.77585 6.59777 3.95153 6.31361 4.04641V5.041H7.77066C8.1571 5.041 8.52771 5.18586 8.80096 5.44372C9.07421 5.70159 9.22772 6.05132 9.22772 6.41599V6.95224C9.55191 7.06037 9.82516 7.27317 9.99916 7.55303C10.1732 7.83289 10.2367 8.1618 10.1786 8.4816C10.1205 8.80141 9.94441 9.09153 9.68153 9.30068C9.41865 9.50983 9.08588 9.62455 8.74203 9.62455C8.39819 9.62455 8.06542 9.50983 7.80254 9.30068C7.53966 9.09153 7.36359 8.80141 7.30547 8.4816C7.24734 8.1618 7.3109 7.83289 7.48491 7.55303C7.65891 7.27317 7.93216 7.06037 8.25635 6.95224V6.41599C8.25635 6.29444 8.20518 6.17786 8.1141 6.0919C8.02301 6.00595 7.89948 5.95766 7.77066 5.95766H3.88518C3.75637 5.95766 3.63283 6.00595 3.54175 6.0919C3.45067 6.17786 3.3995 6.29444 3.3995 6.41599V6.95224C3.72369 7.06037 3.99693 7.27317 4.17094 7.55303C4.34494 7.83289 4.4085 8.1618 4.35038 8.4816C4.29225 8.80141 4.11619 9.09153 3.85331 9.30068C3.59043 9.50983 3.25765 9.62455 2.91381 9.62455C2.56997 9.62455 2.2372 9.50983 1.97432 9.30068C1.71143 9.09153 1.53537 8.80141 1.47725 8.4816C1.41912 8.1618 1.48268 7.83289 1.65668 7.55303C1.83069 7.27317 2.10393 7.06037 2.42813 6.95224V6.41599C2.42813 6.05132 2.58164 5.70159 2.85489 5.44372C3.12814 5.18586 3.49875 5.041 3.88518 5.041H5.34224V4.04641C5.09024 3.96246 4.86755 3.81475 4.69851 3.61942C4.52948 3.42409 4.4206 3.18866 4.38379 2.93887C4.34698 2.68909 4.38365 2.43456 4.48979 2.20311C4.59593 1.97167 4.76745 1.77221 4.98561 1.62656C5.20377 1.4809 5.46017 1.39465 5.72677 1.37723C5.99337 1.35981 6.25992 1.4119 6.49727 1.5278C6.73461 1.64369 6.93363 1.81894 7.07255 2.03437C7.21148 2.24981 7.28496 2.49714 7.28498 2.74933ZM5.82792 2.291C5.69911 2.291 5.57558 2.33929 5.48449 2.42524C5.39341 2.5112 5.34224 2.62777 5.34224 2.74933C5.34224 2.87089 5.39341 2.98747 5.48449 3.07342C5.57558 3.15938 5.69911 3.20766 5.82792 3.20766C5.95673 3.20766 6.08027 3.15938 6.17135 3.07342C6.26244 2.98747 6.31361 2.87089 6.31361 2.74933C6.31361 2.62777 6.26244 2.5112 6.17135 2.42524C6.08027 2.33929 5.95673 2.291 5.82792 2.291ZM2.91381 7.79099C2.785 7.79099 2.66146 7.83928 2.57038 7.92524C2.4793 8.01119 2.42813 8.12777 2.42813 8.24933C2.42813 8.37088 2.4793 8.48746 2.57038 8.57342C2.66146 8.65937 2.785 8.70766 2.91381 8.70766C3.04262 8.70766 3.16616 8.65937 3.25724 8.57342C3.34833 8.48746 3.3995 8.37088 3.3995 8.24933C3.3995 8.12777 3.34833 8.01119 3.25724 7.92524C3.16616 7.83928 3.04262 7.79099 2.91381 7.79099ZM8.74203 7.79099C8.61322 7.79099 8.48969 7.83928 8.3986 7.92524C8.30752 8.01119 8.25635 8.12777 8.25635 8.24933C8.25635 8.37088 8.30752 8.48746 8.3986 8.57342C8.48969 8.65937 8.61322 8.70766 8.74203 8.70766C8.87085 8.70766 8.99438 8.65937 9.08547 8.57342C9.17655 8.48746 9.22772 8.37088 9.22772 8.24933C9.22772 8.12777 9.17655 8.01119 9.08547 7.92524C8.99438 7.83928 8.87085 7.79099 8.74203 7.79099Z" fill="#223484"/>
</g>
<defs>
<clipPath id="clip0_1_2283">
<rect width="11.6157" height="10.9615" fill="white" transform="scale(1.00351)"/>
</clipPath>
</defs>
</svg>
