<svg width="12" height="11" viewBox="0 0 12 11" fill="none" xmlns="http://www.w3.org/2000/svg">
<g clip-path="url(#clip0_1_2359)">
<path d="M9.65149 4.12152C10.0598 4.12151 10.3908 3.81391 10.3908 3.43448C10.3908 3.05504 10.0598 2.74746 9.65147 2.74748C9.24318 2.74749 8.91219 3.05509 8.91219 3.43452C8.9122 3.81395 9.24319 4.12153 9.65149 4.12152Z" fill="#223484"/>
<path d="M5.95583 9.96L3.36833 9.96008L3.36832 9.27306L5.95582 9.27298C7.79036 9.27292 9.28259 7.88612 9.28258 6.18128L9.28257 4.80724L10.0219 4.80721L10.0219 6.18126C10.0219 8.26465 8.19771 9.95993 5.95583 9.96Z" fill="#223484"/>
<path d="M5.21652 7.21164C4.19742 7.21167 3.3683 6.4412 3.36829 5.49414C3.36828 4.54708 4.19739 3.77656 5.21649 3.77653C6.2356 3.7765 7.06471 4.54697 7.06472 5.49402C7.06473 6.44108 6.23563 7.2116 5.21652 7.21164ZM5.2165 4.46355C4.60511 4.46357 4.10757 4.92595 4.10758 5.49412C4.10758 6.06228 4.60513 6.52463 5.21652 6.52461C5.82791 6.5246 6.32544 6.06221 6.32544 5.49405C6.32543 4.92588 5.82789 4.46353 5.2165 4.46355Z" fill="#223484"/>
<path d="M0.780436 8.24177C1.18873 8.24175 1.51973 7.93414 1.51974 7.55471C1.51975 7.17527 1.18876 6.8677 0.780467 6.86772C0.37217 6.86775 0.0411738 7.17536 0.0411654 7.55479C0.0411571 7.93422 0.37214 8.24179 0.780436 8.24177Z" fill="#223484"/>
<path d="M1.15237 6.18177L0.413086 6.18175L0.412908 4.80771C0.412639 2.72431 2.23661 1.02912 4.47849 1.02917L7.066 1.02923L7.06608 1.71625L4.47858 1.71619C2.64404 1.71615 1.15197 3.10288 1.15219 4.80772L1.15237 6.18177Z" fill="#223484"/>
</g>
<defs>
<clipPath id="clip0_1_2359">
<rect width="11.485" height="10.9321" rx="2" transform="matrix(1.00552 0.000664637 0.00100137 1.00552 0 0)" fill="white"/>
</clipPath>
</defs>
</svg>
