<svg width="11" height="11" viewBox="0 0 11 11" fill="none" xmlns="http://www.w3.org/2000/svg">
<g clip-path="url(#clip0_1_2324)">
<path d="M5.45557 0.891979C5.37673 0.891972 5.29788 0.894027 5.21903 0.897527L5.2361 1.26842C5.30856 1.26513 5.38101 1.26328 5.4556 1.26329C7.98727 1.26352 10.0375 3.24814 10.0376 5.69877C10.0378 8.14941 7.9879 10.1337 5.45622 10.1334C3.54681 10.1333 1.91116 9.00474 1.22272 7.39774L1.81152 7.22658L0.779404 6.51894L0.37352 7.64314L0.85406 7.50497C1.59216 9.26257 3.37635 10.5045 5.45625 10.5047C8.19676 10.505 10.4214 8.3516 10.4212 5.69881C10.421 3.04602 8.19609 0.892227 5.45557 0.891979ZM4.79922 0.934001C4.51579 0.970075 4.24302 1.02884 3.97665 1.10885L4.09601 1.4614C4.33894 1.3884 4.59253 1.33458 4.85039 1.3016L4.79922 0.934001ZM3.58455 1.24579C3.32031 1.34994 3.06885 1.47513 2.83019 1.61951L3.03266 1.93328C3.25214 1.80045 3.48442 1.68516 3.72735 1.58947L3.58455 1.24579ZM2.48071 1.85092C2.25701 2.01323 2.0478 2.19344 1.85529 2.38968L2.13341 2.64302C2.31027 2.46212 2.50418 2.29629 2.70875 2.14675L2.60645 2.01121L2.48071 1.85092ZM3.9618 2.02805L3.86806 2.38779L8.49249 3.53267L8.58623 3.17375L3.9618 2.02805ZM1.5787 2.6966C1.40418 2.90699 1.24757 3.13389 1.1112 3.3711L1.44472 3.55266C1.57065 3.33195 1.71512 3.12362 1.87642 2.92766L1.5787 2.6966ZM4.29856 2.87837C4.21549 3.4147 4.35831 4.01706 4.60128 4.51216C4.73769 4.78859 4.90393 5.03202 5.06803 5.20943C5.15754 5.30639 5.24705 5.38066 5.32803 5.43431L5.21299 5.87161C5.11496 5.87986 4.99988 5.9046 4.87202 5.94791C4.63975 6.02627 4.37338 6.1624 4.11766 6.34184C3.65738 6.6636 3.23547 7.12357 3.04371 7.63307L6.61326 8.51834C6.69634 7.98202 6.55351 7.37966 6.31054 6.88456C6.17414 6.60813 6.0079 6.3647 5.84379 6.18728C5.75428 6.09032 5.66478 6.01605 5.58379 5.96241L5.69884 5.5251C5.79473 5.5148 5.91194 5.49212 6.0398 5.44881C6.27208 5.37044 6.53845 5.23432 6.79416 5.05488C7.25444 4.73312 7.67635 4.27315 7.86811 3.76365L4.29856 2.87837ZM0.921776 3.7362C0.808209 3.98373 0.7151 4.23951 0.644794 4.50561L1.01731 4.59228C1.08186 4.34887 1.1673 4.11372 1.27192 3.88682L0.921776 3.7362ZM0.558728 4.90373C0.514208 5.16158 0.490572 5.42768 0.490591 5.69791L0.490592 5.71647L0.874179 5.71238L0.874178 5.69794C0.87416 5.44834 0.89588 5.20287 0.936992 4.96358L0.558728 4.90373ZM2.41933 7.86405L2.32559 8.22297L6.95003 9.36826L7.04377 9.00933L2.41933 7.86405Z" fill="#223484"/>
</g>
<defs>
<clipPath id="clip0_1_2324">
<rect width="10.1112" height="10.1928" rx="2" transform="matrix(1.0791 9.78522e-05 7.57089e-05 1.0791 0 0)" fill="white"/>
</clipPath>
</defs>
</svg>
