<svg width="11" height="11" viewBox="0 0 11 11" fill="none" xmlns="http://www.w3.org/2000/svg">
<g clip-path="url(#clip0_1_2338)">
<path d="M6.59821 10.0821C6.46883 10.0821 6.36045 10.0381 6.27307 9.95006C6.18568 9.86206 6.14181 9.7533 6.14147 9.62378C6.14144 9.49396 6.18524 9.38507 6.27289 9.29713C6.36054 9.20918 6.46889 9.16538 6.59796 9.16572L7.88789 9.16611L6.83749 8.42122C6.73092 8.34483 6.66819 8.24736 6.64928 8.12884C6.63038 8.01031 6.65501 7.89776 6.72317 7.79117C6.79163 7.68428 6.88674 7.62123 7.0085 7.60202C7.13026 7.58281 7.24442 7.60774 7.35098 7.67681L8.4128 8.41024L7.96728 7.19589C7.92158 7.08132 7.92536 6.96677 7.9786 6.85224C8.03184 6.73771 8.11934 6.65755 8.24109 6.61177C8.36284 6.56598 8.4808 6.56984 8.59496 6.62333C8.70913 6.67682 8.78906 6.76466 8.83476 6.88686L9.26886 8.10121L9.61099 6.85273C9.64901 6.73055 9.7193 6.6371 9.82187 6.57238C9.92444 6.50765 10.0368 6.49424 10.1588 6.53216C10.2806 6.57038 10.3758 6.64112 10.4443 6.74439C10.5128 6.84765 10.528 6.96022 10.49 7.08209L9.69176 10.083L6.59821 10.0821ZM2.28298 9.16443C2.03184 9.16435 1.81675 9.07448 1.63771 8.89482C1.45867 8.71515 1.36927 8.49947 1.36951 8.24776L1.36804 2.7494C1.36797 2.4974 1.45741 2.28161 1.63636 2.10205C1.8153 1.92249 2.03019 1.8329 2.28102 1.83328L2.73763 1.83342L2.73739 0.917027L3.65061 0.9173L3.65086 1.83369L6.39053 1.83451L6.39029 0.91812L7.30351 0.918393L7.30376 1.83479L7.76037 1.83492C8.01151 1.835 8.22659 1.92487 8.40563 2.10454C8.58467 2.2842 8.67408 2.49989 8.67384 2.75159L8.67458 5.54659C8.52237 5.52363 8.37017 5.51213 8.21796 5.51209C8.06576 5.51204 7.91356 5.52345 7.76136 5.54632L7.7611 4.5841L2.28175 4.58246L2.28273 8.24804L5.47902 8.24899C5.47906 8.40172 5.49052 8.55446 5.51339 8.7072C5.53626 8.85994 5.57816 9.01268 5.63908 9.16543L2.28298 9.16443ZM2.28151 3.66607L7.76086 3.66771L7.76061 2.75132L2.28127 2.74968L2.28151 3.66607Z" fill="#223484"/>
</g>
<defs>
<clipPath id="clip0_1_2338">
<rect width="10.1576" height="10.1928" rx="2" transform="matrix(1.07887 0.000322743 0.000287836 1.07887 0 0)" fill="white"/>
</clipPath>
</defs>
</svg>
